<svg xmlns="http://www.w3.org/2000/svg" width="66.34" height="81.232" viewBox="0 0 66.34 81.232"><defs><style>.a{fill:#e8eafb;}.b{fill:#174bdd;}</style></defs><path class="a" d="M48.616,68.431V64.37h9.477L48.616,57.6V42.708A2.716,2.716,0,0,0,45.908,40h-35.2A2.716,2.716,0,0,0,8,42.708V68.431a2.716,2.716,0,0,0,2.708,2.708h35.2A2.716,2.716,0,0,0,48.616,68.431Zm0,0" transform="translate(-6.646 -33.231)"/><path class="a" d="M127.139,391.734,96,391.68v10.885a2.716,2.716,0,0,0,2.708,2.708h43.324a2.716,2.716,0,0,0,2.708-2.708V392.412Zm-6.769,9.477a2.708,2.708,0,1,1,2.708-2.708A2.708,2.708,0,0,1,120.37,401.211Zm0,0" transform="translate(-79.754 -325.394)"/><path class="b" d="M220.062,408a4.062,4.062,0,1,0,4.062,4.062A4.062,4.062,0,0,0,220.062,408Zm0,5.415a1.354,1.354,0,1,1,1.354-1.354A1.354,1.354,0,0,1,220.062,413.415Zm0,0" transform="translate(-179.445 -338.953)"/><path class="b" d="M66.34,4.062A4.062,4.062,0,0,0,62.278,0H18.954a4.062,4.062,0,0,0-4.062,4.062V5.415H4.062A4.062,4.062,0,0,0,0,9.477V35.2a4.062,4.062,0,0,0,4.062,4.062H14.893V77.171a4.062,4.062,0,0,0,4.062,4.062H62.278a4.062,4.062,0,0,0,4.062-4.062V4.062ZM2.708,35.2V9.477A1.354,1.354,0,0,1,4.062,8.123h35.2a1.354,1.354,0,0,1,1.354,1.354V24.37a1.354,1.354,0,0,0,.567,1.1l6.038,4.313H41.97a1.354,1.354,0,0,0-1.354,1.354V35.2a1.354,1.354,0,0,1-1.354,1.354H4.062A1.354,1.354,0,0,1,2.708,35.2Zm36.555,4.062A4.062,4.062,0,0,0,43.324,35.2V32.493h8.123a1.354,1.354,0,0,0,.787-2.456l-8.91-6.365V9.477a4.062,4.062,0,0,0-4.062-4.062H17.6V4.062a1.354,1.354,0,0,1,1.354-1.354H62.278c.748,0,1.354,1.354,1.354,1.354V64.937H17.6V39.262Zm24.37,37.908a1.354,1.354,0,0,1-1.354,1.354H18.954A1.354,1.354,0,0,1,17.6,77.171V67.642l41.237-.063c.074.067,3-.072,4.795,0C63.569,68.762,63.776,73.291,63.632,77.171Z"/><path class="b" d="M113.354,342.769h5.415v-2.708h-4.062V336H112v5.415A1.354,1.354,0,0,0,113.354,342.769Zm0,0" transform="translate(-93.046 -279.137)"/><path class="b" d="M332.062,30.769h2.708V25.354A1.354,1.354,0,0,0,333.415,24H328v2.708h4.062Zm0,0" transform="translate(-272.491 -19.938)"/><path class="b" d="M206.784,32h-6.039a.755.755,0,0,0-.755.792l.755,15.1a.755.755,0,0,0,.755.717h4.529a.755.755,0,0,0,.755-.717l.755-15.1a.755.755,0,0,0-.755-.792Zm-1.473,15.1Z" transform="translate(-181.813 -21.67)"/><path class="b" d="M211.019,224a3.019,3.019,0,1,0,3.019,3.019A3.019,3.019,0,0,0,211.019,224Zm0,4.529Z" transform="translate(-189.067 -195.555)"/></svg>