<svg id="Layer_1" data-name="Layer 1" xmlns="http://www.w3.org/2000/svg" viewBox="0 0 48 48"><defs><style>.cls-1{fill:#0b9c59;}</style></defs><title>IOM Icons</title><path class="cls-1" d="M12.09,35a2,2,0,0,1-1.95-1.95V14.78H8.65a.61.61,0,0,0-.65.65V35a.65.65,0,0,0,.65.64h10.9A17.83,17.83,0,0,0,12.09,35Z"/><path class="cls-1" d="M39.29,14.78H37.86V33.09A1.93,1.93,0,0,1,35.72,35a19,19,0,0,0-7.27.64h10.9A.69.69,0,0,0,40,35V15.43A.75.75,0,0,0,39.29,14.78Z"/><path class="cls-1" d="M35.78,33.74a.63.63,0,0,0,.71-.65v-20a.67.67,0,0,0-.58-.65A24.11,24.11,0,0,0,24,13.88,24.86,24.86,0,0,0,12,12.45a.68.68,0,0,0-.58.65v20a.63.63,0,0,0,.71.65c3.31-.39,6.88.19,11.56,1.94h0c.06,0,.13.07.19.07a.24.24,0,0,0,.2-.07h.06C28.9,33.93,32.47,33.35,35.78,33.74ZM21.7,30.56H14.36a.65.65,0,1,1,0-1.3h7.4a.61.61,0,0,1,.65.65A.71.71,0,0,1,21.7,30.56Zm0-4.29H14.36a.65.65,0,0,1,0-1.3h7.4a.61.61,0,0,1,.65.65A.71.71,0,0,1,21.7,26.27Zm0-4.28H14.36a.65.65,0,0,1,0-1.3h7.4a.61.61,0,0,1,.65.65A.77.77,0,0,1,21.7,22Zm0-4.29H14.36a.61.61,0,0,1-.65-.64.61.61,0,0,1,.65-.65h7.4a.61.61,0,0,1,.65.65A.76.76,0,0,1,21.7,17.7Zm4.54-1.29h7.4a.61.61,0,0,1,.65.65.61.61,0,0,1-.65.64h-7.4a.61.61,0,0,1-.65-.64A.61.61,0,0,1,26.24,16.41Zm0,4.28h7.4a.65.65,0,0,1,0,1.3h-7.4a.65.65,0,0,1,0-1.3Zm0,4.28h7.4a.65.65,0,1,1,0,1.3h-7.4a.61.61,0,0,1-.65-.65A.65.65,0,0,1,26.24,25Zm-.65,4.94a.61.61,0,0,1,.65-.65h7.4a.65.65,0,0,1,0,1.3h-7.4A.61.61,0,0,1,25.59,29.91Z"/></svg>