<svg xmlns="http://www.w3.org/2000/svg" width="82.089" height="89.552" viewBox="0 0 82.089 89.552"><defs><style>.a{fill:#e8eafb;}.b{fill:#174bdd;}</style></defs><path class="a" d="M269.313,9.493H237.97V8H232V55.761h5.97V27.4h31.343l-8.955-8.955Zm0,0" transform="translate(-188.717 -6.507)"/><path class="a" d="M8,289.791H22.925V248H8Zm0,0" transform="translate(-6.507 -201.732)"/><path class="b" d="M73.752,11.94l7.9-7.9A1.492,1.492,0,0,0,80.6,1.493H50.746A1.493,1.493,0,0,0,49.253,0h-5.97a1.493,1.493,0,0,0-1.493,1.493V47.761H40.3V37.313a4.478,4.478,0,0,0-4.478-4.478H32.836a4.478,4.478,0,0,0-4.478,4.276L27.015,42.52,21.77,47.761H17.91V46.268a1.493,1.493,0,0,0-1.493-1.493H1.493A1.493,1.493,0,0,0,0,46.268V88.059a1.493,1.493,0,0,0,1.493,1.493H16.418a1.493,1.493,0,0,0,1.493-1.493v-3.9l6.991,2.33a1.5,1.5,0,0,0,.472.076H53.731a4.478,4.478,0,0,0,4.478-4.478V79.1a4.429,4.429,0,0,0-.6-2.2A4.468,4.468,0,0,0,59.7,73.134V70.149a4.451,4.451,0,0,0-1.164-2.985A4.451,4.451,0,0,0,59.7,64.179V61.194a4.429,4.429,0,0,0-.6-2.2,4.468,4.468,0,0,0,2.089-3.774V52.239a4.478,4.478,0,0,0-4.478-4.478h-5.97V22.388H80.6a1.492,1.492,0,0,0,1.055-2.548ZM47.761,2.985V5.97H44.776V2.985Zm-2.985,5.97h2.985V47.761H44.776ZM14.925,86.567H2.985V47.761h11.94ZM58.209,52.239v2.985a1.493,1.493,0,0,1-1.493,1.493H49.253V59.7h5.97a1.493,1.493,0,0,1,1.493,1.493v2.985a1.493,1.493,0,0,1-1.493,1.493H50.746v2.985h4.478a1.493,1.493,0,0,1,1.493,1.493v2.985a1.493,1.493,0,0,1-1.493,1.493H50.746v2.985h2.985A1.493,1.493,0,0,1,55.224,79.1v2.985a1.493,1.493,0,0,1-1.493,1.493H25.615l-7.7-2.569V50.746h4.478a1.493,1.493,0,0,0,1.055-.437l5.97-5.97a1.5,1.5,0,0,0,.393-.692l1.493-5.97a1.522,1.522,0,0,0,.044-.363,1.493,1.493,0,0,1,1.493-1.493h2.985a1.493,1.493,0,0,1,1.493,1.493V47.761H34.328v2.985H56.716A1.493,1.493,0,0,1,58.209,52.239ZM50.746,19.4V4.478H76.994l-6.407,6.407a1.493,1.493,0,0,0,0,2.111L76.994,19.4Zm0,0"/></svg>