<svg xmlns="http://www.w3.org/2000/svg" width="210.313" height="69.938" viewBox="0 0 210.313 69.938">
  <g id="Group_3849" data-name="Group 3849" transform="translate(-62 -178.242)">
    <path id="Path_3183" data-name="Path 3183" d="M-140.175-2.25h-4.875L-145.98,0h-2.49l4.68-10.5h2.4L-136.7,0h-2.55ZM-140.94-4.1l-1.665-4.02L-144.27-4.1ZM-126.6.18a8.591,8.591,0,0,1-2.407-.338,5.646,5.646,0,0,1-1.868-.877l.825-1.83a5.6,5.6,0,0,0,1.605.8,6.028,6.028,0,0,0,1.86.3,2.971,2.971,0,0,0,1.53-.308.929.929,0,0,0,.5-.817.781.781,0,0,0-.293-.623,2.217,2.217,0,0,0-.75-.4q-.458-.15-1.237-.33a17.107,17.107,0,0,1-1.965-.57,3.193,3.193,0,0,1-1.312-.915,2.471,2.471,0,0,1-.548-1.68,2.922,2.922,0,0,1,.495-1.658,3.33,3.33,0,0,1,1.492-1.178,6.09,6.09,0,0,1,2.438-.435,8.071,8.071,0,0,1,1.965.24,5.8,5.8,0,0,1,1.68.69l-.75,1.845a5.855,5.855,0,0,0-2.91-.825,2.728,2.728,0,0,0-1.507.33,1.007,1.007,0,0,0-.488.87.851.851,0,0,0,.562.8,8.832,8.832,0,0,0,1.717.517,17.107,17.107,0,0,1,1.965.57,3.254,3.254,0,0,1,1.313.9,2.413,2.413,0,0,1,.548,1.665,2.867,2.867,0,0,1-.5,1.643,3.376,3.376,0,0,1-1.507,1.177A6.146,6.146,0,0,1-126.6.18Zm15.12,0a8.591,8.591,0,0,1-2.408-.338,5.646,5.646,0,0,1-1.868-.877l.825-1.83a5.6,5.6,0,0,0,1.6.8,6.029,6.029,0,0,0,1.86.3,2.971,2.971,0,0,0,1.53-.308.929.929,0,0,0,.5-.817.781.781,0,0,0-.293-.623,2.217,2.217,0,0,0-.75-.4q-.458-.15-1.237-.33a17.107,17.107,0,0,1-1.965-.57A3.193,3.193,0,0,1-115-5.73a2.471,2.471,0,0,1-.548-1.68,2.922,2.922,0,0,1,.5-1.658,3.33,3.33,0,0,1,1.493-1.178,6.09,6.09,0,0,1,2.438-.435,8.071,8.071,0,0,1,1.965.24,5.8,5.8,0,0,1,1.68.69l-.75,1.845a5.855,5.855,0,0,0-2.91-.825,2.728,2.728,0,0,0-1.507.33,1.007,1.007,0,0,0-.488.87.851.851,0,0,0,.563.8,8.832,8.832,0,0,0,1.717.517,17.107,17.107,0,0,1,1.965.57,3.254,3.254,0,0,1,1.313.9,2.413,2.413,0,0,1,.548,1.665,2.867,2.867,0,0,1-.5,1.643,3.376,3.376,0,0,1-1.507,1.177A6.146,6.146,0,0,1-111.48.18ZM-99.81-10.5h2.43V0h-2.43ZM-85.89.18A8.591,8.591,0,0,1-88.3-.157a5.646,5.646,0,0,1-1.868-.877l.825-1.83a5.6,5.6,0,0,0,1.6.8,6.029,6.029,0,0,0,1.86.3,2.971,2.971,0,0,0,1.53-.308.929.929,0,0,0,.5-.817.781.781,0,0,0-.293-.623,2.217,2.217,0,0,0-.75-.4q-.458-.15-1.237-.33a17.107,17.107,0,0,1-1.965-.57,3.193,3.193,0,0,1-1.312-.915,2.471,2.471,0,0,1-.548-1.68,2.922,2.922,0,0,1,.5-1.658,3.33,3.33,0,0,1,1.493-1.178,6.09,6.09,0,0,1,2.438-.435,8.071,8.071,0,0,1,1.965.24,5.8,5.8,0,0,1,1.68.69l-.75,1.845a5.855,5.855,0,0,0-2.91-.825,2.728,2.728,0,0,0-1.507.33,1.007,1.007,0,0,0-.488.87.851.851,0,0,0,.563.8,8.832,8.832,0,0,0,1.717.517,17.107,17.107,0,0,1,1.965.57,3.254,3.254,0,0,1,1.313.9,2.413,2.413,0,0,1,.548,1.665,2.867,2.867,0,0,1-.5,1.643A3.376,3.376,0,0,1-83.445-.255,6.146,6.146,0,0,1-85.89.18ZM-72.2-8.52h-3.36V-10.5h9.15v1.98h-3.36V0H-72.2ZM-53.16-2.25h-4.875L-58.965,0h-2.49l4.68-10.5h2.4L-49.68,0h-2.55ZM-53.925-4.1l-1.665-4.02L-57.255-4.1Zm20.52-6.4V0H-35.4l-5.235-6.375V0h-2.4V-10.5h2.01l5.22,6.375V-10.5ZM-20.34.18a6.031,6.031,0,0,1-2.9-.7,5.205,5.205,0,0,1-2.04-1.935,5.331,5.331,0,0,1-.743-2.8,5.331,5.331,0,0,1,.743-2.8,5.205,5.205,0,0,1,2.04-1.935,6.063,6.063,0,0,1,2.917-.7,6.12,6.12,0,0,1,2.468.48,4.942,4.942,0,0,1,1.852,1.38l-1.56,1.44a3.354,3.354,0,0,0-2.64-1.23,3.506,3.506,0,0,0-1.74.427A3.039,3.039,0,0,0-23.138-6.99a3.506,3.506,0,0,0-.427,1.74,3.506,3.506,0,0,0,.427,1.74,3.039,3.039,0,0,0,1.193,1.193,3.506,3.506,0,0,0,1.74.427,3.338,3.338,0,0,0,2.64-1.245l1.56,1.44A4.863,4.863,0,0,1-17.865-.3,6.173,6.173,0,0,1-20.34.18ZM-.69-1.95V0H-8.82V-10.5H-.885v1.95h-5.52v2.28H-1.53v1.89H-6.405v2.43Z" transform="translate(272.47 248)" fill="#fff"/>
    <path id="Path_3184" data-name="Path 3184" d="M-158.624-11.2V0h-2.592V-4.592H-166.3V0H-168.9V-11.2h2.592v4.416h5.088V-11.2ZM-147.792.192a5.068,5.068,0,0,1-3.736-1.328,5.112,5.112,0,0,1-1.336-3.792V-11.2h2.592v6.176q0,3.008,2.5,3.008a2.34,2.34,0,0,0,1.856-.728,3.394,3.394,0,0,0,.64-2.28V-11.2h2.56v6.272a5.112,5.112,0,0,1-1.336,3.792A5.068,5.068,0,0,1-147.792.192ZM-126.768,0l-.016-6.72-3.3,5.536h-1.168l-3.28-5.392V0h-2.432V-11.2h2.144l4.192,6.96,4.128-6.96h2.128l.032,11.2ZM-111.1-2.4h-5.2L-117.3,0h-2.656l4.992-11.2h2.56L-107.392,0h-2.72Zm-.816-1.968L-113.7-8.656l-1.776,4.288ZM-92.752-11.2V0H-94.88l-5.584-6.8V0h-2.56V-11.2h2.144l5.568,6.8v-6.8Zm5.856,0H-84.3V0H-86.9Zm10.768,2.112h-3.584V-11.2h9.76v2.112h-3.584V0h-2.592ZM-58.544-2.4h-5.2L-64.736,0h-2.656L-62.4-11.2h2.56L-54.832,0h-2.72Zm-.816-1.968-1.776-4.288-1.776,4.288ZM-43.328,0l-2.16-3.12h-2.384V0h-2.592V-11.2h4.848a6.222,6.222,0,0,1,2.584.5A3.839,3.839,0,0,1-41.344-9.3a3.879,3.879,0,0,1,.592,2.16,3.8,3.8,0,0,1-.6,2.152,3.8,3.8,0,0,1-1.7,1.384L-40.544,0Zm-.048-7.136a1.774,1.774,0,0,0-.608-1.448,2.722,2.722,0,0,0-1.776-.5h-2.112v3.9h2.112A2.692,2.692,0,0,0-43.984-5.7,1.779,1.779,0,0,0-43.376-7.136ZM-35.5-11.2h2.592V0H-35.5ZM-19.68-2.4h-5.2L-25.872,0h-2.656l4.992-11.2h2.56L-15.968,0h-2.72ZM-20.5-4.368l-1.776-4.288-1.776,4.288ZM-1.328-11.2V0H-3.456L-9.04-6.8V0H-11.6V-11.2h2.144l5.568,6.8v-6.8Z" transform="translate(264 227)" fill="#fff"/>
    <path id="Path_3185" data-name="Path 3185" d="M-.33,3.6A3.825,3.825,0,0,1-1.6,3.42V1.648A2.592,2.592,0,0,0-.762,1.8a1.158,1.158,0,0,0,.784-.293A1.686,1.686,0,0,0,.5.557L1.992-6.511H.8l.22-1.062,1.34-.615L2.49-8.8A3.705,3.705,0,0,1,3.5-10.836a2.9,2.9,0,0,1,2-.641,3.99,3.99,0,0,1,1.721.359L6.643-9.478A2.373,2.373,0,0,0,5.669-9.7.852.852,0,0,0,5-9.412a1.576,1.576,0,0,0-.344.769l-.088.454h1.6L5.808-6.511H4.2L2.622.886Q2.058,3.6-.33,3.6ZM11.492-5.1q0-1.443-1.047-1.443a1.344,1.344,0,0,0-.985.447,3.277,3.277,0,0,0-.71,1.311A5.841,5.841,0,0,0,8.474-3q0,1.355,1.1,1.355a1.351,1.351,0,0,0,.989-.45,3.031,3.031,0,0,0,.685-1.252A5.947,5.947,0,0,0,11.492-5.1Zm2.219,0a6.844,6.844,0,0,1-.516,2.739A4.147,4.147,0,0,1,11.7-.509,4.047,4.047,0,0,1,9.39.146,3.069,3.069,0,0,1,7.108-.714,3.108,3.108,0,0,1,6.255-3a6.985,6.985,0,0,1,.524-2.78,4.232,4.232,0,0,1,1.512-1.89,4.026,4.026,0,0,1,2.314-.67,3.01,3.01,0,0,1,2.271.864A3.282,3.282,0,0,1,13.711-5.1Zm6.826-3.245a2.529,2.529,0,0,1,.7.081l-.483,2.124a2.174,2.174,0,0,0-.732-.117,2,2,0,0,0-1.49.67,3.924,3.924,0,0,0-.912,1.923L16.846,0h-2.2l1.736-8.188h1.685l-.154,1.516h.044A3.078,3.078,0,0,1,20.537-8.342Z" transform="translate(63.604 227)" fill="#fff"/>
    <path id="Path_3186" data-name="Path 3186" d="M-200.337-21.758a11.722,11.722,0,0,1,4.493.838,10.637,10.637,0,0,1,3.526,2.322A10.586,10.586,0,0,1-190-15.05a11.885,11.885,0,0,1,.839,4.515A11.885,11.885,0,0,1-190-6.02a10.586,10.586,0,0,1-2.322,3.547A10.637,10.637,0,0,1-195.844-.15a11.722,11.722,0,0,1-4.493.839,11.722,11.722,0,0,1-4.493-.839,10.637,10.637,0,0,1-3.526-2.322,10.586,10.586,0,0,1-2.322-3.547,11.885,11.885,0,0,1-.839-4.515,11.885,11.885,0,0,1,.839-4.515,10.586,10.586,0,0,1,2.322-3.547,10.637,10.637,0,0,1,3.526-2.322A11.722,11.722,0,0,1-200.337-21.758Zm0,17.243a5.515,5.515,0,0,0,2.085-.409,5.318,5.318,0,0,0,1.785-1.183A5.6,5.6,0,0,0-195.242-8a6.727,6.727,0,0,0,.452-2.537,6.727,6.727,0,0,0-.452-2.537,5.6,5.6,0,0,0-1.225-1.892,5.318,5.318,0,0,0-1.785-1.182,5.515,5.515,0,0,0-2.085-.409,5.464,5.464,0,0,0-2.107.409,5.376,5.376,0,0,0-1.763,1.182,5.605,5.605,0,0,0-1.226,1.892,6.727,6.727,0,0,0-.451,2.537A6.727,6.727,0,0,0-205.433-8a5.605,5.605,0,0,0,1.226,1.892,5.376,5.376,0,0,0,1.763,1.183A5.464,5.464,0,0,0-200.337-4.515Zm13.115-16.555h5.289v2.537h.344a6.393,6.393,0,0,1,2.408-2.279,7.956,7.956,0,0,1,4.042-.946,9.122,9.122,0,0,1,3.848.838,10.289,10.289,0,0,1,3.225,2.322,11.028,11.028,0,0,1,2.214,3.547,12.161,12.161,0,0,1,.817,4.515,12.161,12.161,0,0,1-.817,4.515,11.028,11.028,0,0,1-2.214,3.547A10.289,10.289,0,0,1-171.291-.15a9.122,9.122,0,0,1-3.848.839,7.956,7.956,0,0,1-4.042-.946,6.393,6.393,0,0,1-2.408-2.279h-.344l.344,3.01V9.288h-5.633ZM-176.3-4.515a5.38,5.38,0,0,0,2.128-.43,5.6,5.6,0,0,0,1.785-1.2,5.877,5.877,0,0,0,1.247-1.892,6.341,6.341,0,0,0,.473-2.494,6.341,6.341,0,0,0-.473-2.494,5.877,5.877,0,0,0-1.247-1.892,5.6,5.6,0,0,0-1.785-1.2,5.38,5.38,0,0,0-2.128-.43,5.625,5.625,0,0,0-2.129.409,5.318,5.318,0,0,0-1.785,1.182,5.877,5.877,0,0,0-1.247,1.892,6.457,6.457,0,0,0-.473,2.537A6.457,6.457,0,0,0-181.46-8a5.877,5.877,0,0,0,1.247,1.892,5.318,5.318,0,0,0,1.785,1.183A5.625,5.625,0,0,0-176.3-4.515Zm33.54-.559A11.8,11.8,0,0,1-146.695-.9,10.935,10.935,0,0,1-152.736.688a11.607,11.607,0,0,1-4.451-.839,10.709,10.709,0,0,1-3.548-2.343,10.709,10.709,0,0,1-2.344-3.547,11.722,11.722,0,0,1-.839-4.494,11.527,11.527,0,0,1,.817-4.321,11.018,11.018,0,0,1,2.279-3.569,11.018,11.018,0,0,1,3.462-2.43,10.585,10.585,0,0,1,4.408-.9,11.476,11.476,0,0,1,4.515.838,9.211,9.211,0,0,1,3.311,2.322,9.992,9.992,0,0,1,2.021,3.5,13.528,13.528,0,0,1,.688,4.386v.516a2.9,2.9,0,0,0-.043.473,2.416,2.416,0,0,0-.043.473h-15.867a5.926,5.926,0,0,0,.709,2.214,5.372,5.372,0,0,0,1.333,1.548,5.182,5.182,0,0,0,1.742.9,6.794,6.794,0,0,0,1.935.28,5.485,5.485,0,0,0,3.2-.881,6.432,6.432,0,0,0,2-2.215Zm-5.117-8.17a3.648,3.648,0,0,0-.365-1.247,4.39,4.39,0,0,0-.946-1.29,4.952,4.952,0,0,0-1.548-.989,5.721,5.721,0,0,0-2.214-.387,5.16,5.16,0,0,0-3.182,1.032,5.448,5.448,0,0,0-1.935,2.881Zm13.072-5.074h.344a7.139,7.139,0,0,1,2.666-2.515,7.8,7.8,0,0,1,3.827-.924,8.779,8.779,0,0,1,3.483.645,6.379,6.379,0,0,1,2.473,1.827,8.07,8.07,0,0,1,1.462,2.838,12.817,12.817,0,0,1,.494,3.677V0h-5.633V-12.083a4.849,4.849,0,0,0-1.011-3.376,3.807,3.807,0,0,0-2.946-1.1,4.1,4.1,0,0,0-2.042.495,4.769,4.769,0,0,0-1.505,1.333,6.032,6.032,0,0,0-.946,1.978,8.884,8.884,0,0,0-.322,2.43V0h-5.633V-21.07h5.289ZM-100.19.688a12.053,12.053,0,0,1-3.676-.516,10.14,10.14,0,0,1-2.795-1.355,8.859,8.859,0,0,1-2-1.935,9.32,9.32,0,0,1-1.247-2.214l5.031-2.15a5.439,5.439,0,0,0,1.956,2.43,4.908,4.908,0,0,0,2.73.8,4.632,4.632,0,0,0,2.451-.559,1.588,1.588,0,0,0,.9-1.333,1.646,1.646,0,0,0-.752-1.4,7.786,7.786,0,0,0-2.6-.967l-2.967-.645a10.389,10.389,0,0,1-2.042-.688,7.99,7.99,0,0,1-1.913-1.2,6.1,6.1,0,0,1-1.419-1.763,4.979,4.979,0,0,1-.559-2.408,5.587,5.587,0,0,1,.667-2.752,6.21,6.21,0,0,1,1.827-2.042,8.751,8.751,0,0,1,2.73-1.29,12.162,12.162,0,0,1,3.375-.451,11.857,11.857,0,0,1,5.375,1.182,7.281,7.281,0,0,1,3.483,3.763l-4.859,1.978a3.725,3.725,0,0,0-1.763-1.806,5.312,5.312,0,0,0-2.322-.559,4.318,4.318,0,0,0-2.107.495,1.452,1.452,0,0,0-.9,1.268,1.3,1.3,0,0,0,.753,1.161,8.738,8.738,0,0,0,2.043.774l3.225.774a9.321,9.321,0,0,1,4.795,2.473A5.726,5.726,0,0,1-91.2-6.235a5.633,5.633,0,0,1-.645,2.623A7.028,7.028,0,0,1-93.676-1.4,8.956,8.956,0,0,1-96.514.129,11.441,11.441,0,0,1-100.19.688ZM-89.44-21.07h5.289v2.537h.344A6.392,6.392,0,0,1-81.4-20.812a7.956,7.956,0,0,1,4.042-.946,9.122,9.122,0,0,1,3.849.838A10.289,10.289,0,0,1-70.284-18.6a11.028,11.028,0,0,1,2.215,3.547,12.161,12.161,0,0,1,.817,4.515,12.161,12.161,0,0,1-.817,4.515,11.028,11.028,0,0,1-2.215,3.547A10.289,10.289,0,0,1-73.509-.15a9.122,9.122,0,0,1-3.849.839A7.956,7.956,0,0,1-81.4-.258a6.393,6.393,0,0,1-2.408-2.279h-.344l.344,3.01V9.288H-89.44ZM-78.518-4.515a5.38,5.38,0,0,0,2.129-.43,5.6,5.6,0,0,0,1.785-1.2,5.877,5.877,0,0,0,1.247-1.892,6.341,6.341,0,0,0,.473-2.494,6.341,6.341,0,0,0-.473-2.494,5.877,5.877,0,0,0-1.247-1.892,5.6,5.6,0,0,0-1.785-1.2,5.38,5.38,0,0,0-2.129-.43,5.625,5.625,0,0,0-2.128.409,5.318,5.318,0,0,0-1.785,1.182,5.877,5.877,0,0,0-1.247,1.892,6.457,6.457,0,0,0-.473,2.537A6.457,6.457,0,0,0-83.678-8a5.877,5.877,0,0,0,1.247,1.892,5.318,5.318,0,0,0,1.785,1.183A5.625,5.625,0,0,0-78.518-4.515Zm26.574,2.279h-.344A9.5,9.5,0,0,1-54.675-.172a6.76,6.76,0,0,1-3.59.86A8.723,8.723,0,0,1-61.34.15a8,8,0,0,1-2.515-1.483,6.635,6.635,0,0,1-1.677-2.279,7.022,7.022,0,0,1-.6-2.924,6.585,6.585,0,0,1,.645-2.946,6.7,6.7,0,0,1,1.806-2.257,8.147,8.147,0,0,1,2.73-1.44,11.324,11.324,0,0,1,3.419-.495,14.816,14.816,0,0,1,3.4.323,16.475,16.475,0,0,1,2.193.667v-.645A3.44,3.44,0,0,0-53.277-16.1a5.039,5.039,0,0,0-3.311-1.1,6.186,6.186,0,0,0-4.945,2.451l-4.085-2.795a11.075,11.075,0,0,1,9.159-4.214q4.9,0,7.482,2.3t2.58,6.815V0h-5.547Zm0-6.321a11.646,11.646,0,0,0-2.042-.752,8.954,8.954,0,0,0-2.3-.28,4.864,4.864,0,0,0-3.118.881,2.688,2.688,0,0,0-1.1,2.172,2.436,2.436,0,0,0,1.054,2.064,4,4,0,0,0,2.43.774,5.151,5.151,0,0,0,2.064-.408,5.123,5.123,0,0,0,1.612-1.075A4.727,4.727,0,0,0-52.31-6.729,4.727,4.727,0,0,0-51.944-8.557Zm28.509,3.182A11.76,11.76,0,0,1-27.284-1.01a10.647,10.647,0,0,1-6.17,1.7A11.722,11.722,0,0,1-37.948-.15a10.474,10.474,0,0,1-3.526-2.343A10.88,10.88,0,0,1-43.8-6.041a11.722,11.722,0,0,1-.839-4.494A11.885,11.885,0,0,1-43.8-15.05,10.585,10.585,0,0,1-41.474-18.6a10.637,10.637,0,0,1,3.526-2.322,11.722,11.722,0,0,1,4.493-.838,10.772,10.772,0,0,1,6.149,1.677,9.931,9.931,0,0,1,3.655,4.343l-5.16,2.15A5.541,5.541,0,0,0-30.681-15.8a5.084,5.084,0,0,0-2.859-.752,5.227,5.227,0,0,0-2.107.43,5.421,5.421,0,0,0-1.742,1.2,5.514,5.514,0,0,0-1.183,1.892A6.9,6.9,0,0,0-39-10.535a6.9,6.9,0,0,0,.43,2.494,5.514,5.514,0,0,0,1.183,1.892,5.421,5.421,0,0,0,1.742,1.2,5.227,5.227,0,0,0,2.107.43,5.373,5.373,0,0,0,2.989-.8,5.55,5.55,0,0,0,1.956-2.3Zm21.887.3A11.8,11.8,0,0,1-5.483-.9,10.935,10.935,0,0,1-11.524.688a11.607,11.607,0,0,1-4.45-.839,10.709,10.709,0,0,1-3.548-2.343,10.709,10.709,0,0,1-2.344-3.547,11.722,11.722,0,0,1-.838-4.494,11.527,11.527,0,0,1,.817-4.321,11.018,11.018,0,0,1,2.279-3.569,11.018,11.018,0,0,1,3.462-2.43,10.585,10.585,0,0,1,4.408-.9,11.476,11.476,0,0,1,4.515.838A9.211,9.211,0,0,1-3.913-18.6a9.992,9.992,0,0,1,2.021,3.5A13.528,13.528,0,0,1-1.2-10.707v.516a2.9,2.9,0,0,0-.043.473,2.416,2.416,0,0,0-.043.473H-17.157a5.925,5.925,0,0,0,.71,2.214,5.372,5.372,0,0,0,1.333,1.548,5.182,5.182,0,0,0,1.741.9,6.794,6.794,0,0,0,1.935.28,5.485,5.485,0,0,0,3.2-.881,6.432,6.432,0,0,0,2-2.215Zm-5.117-8.17a3.648,3.648,0,0,0-.365-1.247,4.39,4.39,0,0,0-.946-1.29,4.952,4.952,0,0,0-1.548-.989,5.721,5.721,0,0,0-2.215-.387,5.159,5.159,0,0,0-3.182,1.032,5.448,5.448,0,0,0-1.935,2.881Z" transform="translate(273.517 200)" fill="#fff"/>
  </g>
</svg>
