<svg xmlns="http://www.w3.org/2000/svg" width="85.116" height="79.442" viewBox="0 0 85.116 79.442"><defs><style>.a{fill:#e8eafb;}.b{fill:#174bdd;}</style></defs><g transform="translate(-2 -6)"><g transform="translate(3.419 7.419)"><path class="a" d="M76.488,7V72.255H62.3L56.628,74V59.488H55.209V53.814l-.043-.227a17.023,17.023,0,1,0-5.589,0l-.043.227v5.674H48.116V76.625L43.86,77.93,24,72.255V7l19.86,5.674L62.3,7Z" transform="translate(5.791 -7)"/><path class="a" d="M46.512,20A8.512,8.512,0,0,0,38,28.512c0,2.993,3.461,7.363,5.958,10.129,1.433,1.575,2.553,2.639,2.553,2.639s1.121-1.064,2.553-2.639c2.5-2.766,5.958-7.136,5.958-10.129A8.512,8.512,0,0,0,46.512,20Zm0,11.349a2.837,2.837,0,1,1,2.837-2.837,2.837,2.837,0,0,1-2.837,2.837Z" transform="translate(11.651 -1.558)"/><path class="a" d="M32.791,7V72.255L15.767,77.93,3,72.255V7l12.767,5.674Z" transform="translate(-3 -7)"/></g><path class="b" d="M85.7,6H71.511a1.428,1.428,0,0,0-.417.062l-18.04,5.551L33.6,6.055a1.419,1.419,0,0,0-.837.017l-16.5,5.5L3.995,6.122A1.419,1.419,0,0,0,2,7.419V72.674a1.419,1.419,0,0,0,.843,1.3L15.61,79.645a1.419,1.419,0,0,0,1.024.05L33.24,74.162l19.435,5.554a1.4,1.4,0,0,0,.8,0l2.427-.753v.8a5.674,5.674,0,0,0,11.349,0v-4.3l4.469-1.375H85.7a1.419,1.419,0,0,0,1.419-1.419V7.419A1.419,1.419,0,0,0,85.7,6ZM4.837,9.6l9.93,4.413v6.171H17.6v-6.07l14.186-4.73V71.651L17.6,76.381V69.837H14.767v6.328l-9.93-4.413ZM61.581,52.814a15.6,15.6,0,1,1,15.6-15.6,15.6,15.6,0,0,1-15.6,15.6Zm-1.419,2.765c.47.037.939.072,1.419.072s.949-.035,1.419-.072v2.91H60.162Zm4.256,24.188a2.837,2.837,0,0,1-5.674,0V61.325h5.674Zm19.86-8.512H72.93V64.162H70.093v7.463l-2.837.872V59.907a1.419,1.419,0,0,0-1.419-1.419V55.136a18.442,18.442,0,1,0-8.512,0v3.352a1.419,1.419,0,0,0-1.419,1.419V75.995l-2.851.874L34.628,71.6V9.3l18.053,5.157a1.38,1.38,0,0,0,.806-.007l16.606-5.11v5.172H72.93V8.837H84.279Z" transform="translate(0)"/><path class="b" d="M46.93,19A9.942,9.942,0,0,0,37,28.93c0,2.837,2.433,6.463,4.774,9.3-2.136.745-3.355,1.97-3.355,3.47,0,2.924,4.412,4.256,8.512,4.256s8.512-1.332,8.512-4.256c0-1.5-1.219-2.725-3.355-3.47,2.341-2.834,4.774-6.46,4.774-9.3A9.942,9.942,0,0,0,46.93,19Zm0,2.837a7.1,7.1,0,0,1,7.093,7.093c0,2.68-4.016,7.66-7.093,10.781-3.077-3.121-7.093-8.1-7.093-10.781A7.1,7.1,0,0,1,46.93,21.837ZM52.566,41.7c-.376.468-2.321,1.419-5.636,1.419s-5.26-.95-5.636-1.419a5.117,5.117,0,0,1,2.562-1.1c1.03,1.1,1.844,1.891,2.1,2.128a1.419,1.419,0,0,0,1.951,0c.255-.243,1.07-1.03,2.1-2.128a5.117,5.117,0,0,1,2.562,1.1Z" transform="translate(14.651 5.442)"/><path class="b" d="M49.512,27.256a4.256,4.256,0,1,0-4.256,4.256A4.256,4.256,0,0,0,49.512,27.256Zm-5.674,0a1.419,1.419,0,1,1,1.419,1.419A1.419,1.419,0,0,1,43.837,27.256Z" transform="translate(16.325 7.116)"/></g></svg>